{
	"asset":{
		"generator":"Khronos glTF Blender I/O v4.3.47",
		"version":"2.0"
	},
	"scene":0,
	"scenes":[
		{
			"name":"Scene",
			"nodes":[
				0
			]
		}
	],
	"nodes":[
		{
			"mesh":0,
			"name":"Cube"
		}
	],
	"materials":[
		{
			"doubleSided":true,
			"name":"Material",
			"pbrMetallicRoughness":{
				"baseColorTexture":{
					"index":0
				},
				"metallicFactor":0,
				"roughnessFactor":0.5
			}
		}
	],
	"meshes":[
		{
			"name":"Cube.001",
			"primitives":[
				{
					"attributes":{
						"POSITION":0,
						"NORMAL":1,
						"TEXCOORD_0":2
					},
					"indices":3,
					"material":0
				}
			]
		}
	],
	"textures":[
		{
			"sampler":0,
			"source":0
		}
	],
	"images":[
		{
			"mimeType":"image/png",
			"name":"Image",
			"uri":"Image.png"
		}
	],
	"accessors":[
		{
			"bufferView":0,
			"componentType":5126,
			"count":2292,
			"max":[
				1.0896096229553223,
				1.0433316230773926,
				1.4098026752471924
			],
			"min":[
				-1.6422622203826904,
				-0.03372269868850708,
				-1.4098026752471924
			],
			"type":"VEC3"
		},
		{
			"bufferView":1,
			"componentType":5126,
			"count":2292,
			"type":"VEC3"
		},
		{
			"bufferView":2,
			"componentType":5126,
			"count":2292,
			"type":"VEC2"
		},
		{
			"bufferView":3,
			"componentType":5123,
			"count":5382,
			"type":"SCALAR"
		}
	],
	"bufferViews":[
		{
			"buffer":0,
			"byteLength":27504,
			"byteOffset":0,
			"target":34962
		},
		{
			"buffer":0,
			"byteLength":27504,
			"byteOffset":27504,
			"target":34962
		},
		{
			"buffer":0,
			"byteLength":18336,
			"byteOffset":55008,
			"target":34962
		},
		{
			"buffer":0,
			"byteLength":10764,
			"byteOffset":73344,
			"target":34963
		}
	],
	"samplers":[
		{
			"magFilter":9729,
			"minFilter":9987
		}
	],
	"buffers":[
		{
			"byteLength":84108,
			"uri":"laptop.bin"
		}
	]
}
